<?xml version="1.0" encoding="UTF-8"?>
<svg width="20px" height="20px" viewBox="0 0 20 20" version="1.1" xmlns="http://www.w3.org/2000/svg" xmlns:xlink="http://www.w3.org/1999/xlink">
    <title>info</title>
    <g id="Desktop" stroke="none" stroke-width="1" fill="none" fill-rule="evenodd">
        <g id="Produkty" transform="translate(-530.000000, -568.000000)">
            <g id="info" transform="translate(530.000000, 568.000000)">
                <polygon id="Path" points="0 0 20 0 20 20 0 20"></polygon>
                <polygon id="Path" opacity="0.1" points="0 0 20 0 20 20 0 20"></polygon>
                <path d="M10,1.875 C5.51268641,1.875 1.875,5.51268641 1.875,10 C1.875,14.4873136 5.51268641,18.125 10,18.125 C14.4873136,18.125 18.125,14.4873136 18.125,10 C18.12004,5.51474253 14.4852575,1.87996005 10,1.875 Z M9.844,5.625 C10.1862382,5.61382106 10.507374,5.7900223 10.6818018,6.08468637 C10.8562297,6.37935044 10.8562297,6.74564956 10.6818018,7.04031363 C10.507374,7.3349777 10.1862382,7.51117894 9.844,7.5 C9.33814768,7.48347673 8.9366227,7.0686221 8.9366227,6.5625 C8.9366227,6.0563779 9.33814768,5.64152327 9.844,5.625 L9.844,5.625 Z M10.625,14.375 L10,14.375 C9.65482203,14.375 9.375,14.095178 9.375,13.75 L9.375,10 C9.02982203,10 8.75,9.72017797 8.75,9.375 C8.75,9.02982203 9.02982203,8.75 9.375,8.75 L10,8.75 C10.345,8.75 10.625,9.03 10.625,9.375 L10.625,13.125 C10.970178,13.125 11.25,13.404822 11.25,13.75 C11.25,14.095178 10.970178,14.375 10.625,14.375 Z" id="Shape" fill="#666666" fill-rule="nonzero"></path>
            </g>
        </g>
    </g>
</svg>